<svg width="137" height="31" viewBox="0 0 137 31" fill="none" xmlns="http://www.w3.org/2000/svg">
<path d="M21.126 19.236L15.12 5.418L9.072 19.236H21.126ZM0 30.282L13.272 0H16.968L30.198 30.282H25.998L22.764 22.974H7.476L4.242 30.282H0Z" fill="black"/>
<path d="M53.7817 15.876V30.282H50.2537V16.926C50.2537 13.818 48.6577 12.012 45.9697 12.012C42.9037 12.012 40.7197 14.154 40.7197 17.178V30.282H37.1917V9.534H40.7197V13.23C42.6517 10.416 44.9197 8.988 47.4817 8.988C51.2197 8.988 53.7817 11.76 53.7817 15.876Z" fill="black"/>
<path d="M61.508 5.544V1.008H65.036V5.544H61.508ZM61.508 30.282V9.534H65.036V30.282H61.508Z" fill="black"/>
<path d="M75.5377 18.27H86.3317C85.9957 11.844 81.5437 11.844 80.9977 11.844C77.7217 11.844 75.7477 14.154 75.5377 18.27ZM86.8777 23.562L89.6917 24.948C88.8937 26.712 88.4317 27.384 87.5077 28.308C85.7437 30.03 83.5177 30.912 80.9977 30.912C75.4957 30.912 71.7997 26.46 71.7997 19.95C71.7997 13.482 75.6217 8.988 81.1657 8.988C86.2477 8.988 89.9857 13.188 89.9857 18.858C89.9857 19.488 89.9437 20.202 89.9017 21.084H75.4537C75.7897 28.098 80.5357 28.098 81.2917 28.098C85.2817 28.098 86.4157 24.822 86.8777 23.562Z" fill="black"/>
<path d="M112.557 15.876V30.282H109.029V16.926C109.029 13.818 107.433 12.012 104.745 12.012C101.679 12.012 99.495 14.154 99.495 17.178V30.282H95.967V9.534H99.495V13.23C101.427 10.416 103.695 8.988 106.257 8.988C109.995 8.988 112.557 11.76 112.557 15.876Z" fill="black"/>
<path d="M122.213 18.27H133.007C132.671 11.844 128.219 11.844 127.673 11.844C124.397 11.844 122.423 14.154 122.213 18.27ZM133.553 23.562L136.367 24.948C135.569 26.712 135.107 27.384 134.183 28.308C132.419 30.03 130.193 30.912 127.673 30.912C122.171 30.912 118.475 26.46 118.475 19.95C118.475 13.482 122.297 8.988 127.841 8.988C132.923 8.988 136.661 13.188 136.661 18.858C136.661 19.488 136.619 20.202 136.577 21.084H122.129C122.465 28.098 127.211 28.098 127.967 28.098C131.957 28.098 133.091 24.822 133.553 23.562Z" fill="black"/>
</svg>
